<?xml version="1.0" standalone="no"?>
<!DOCTYPE svg PUBLIC "-//W3C//DTD SVG 20010904//EN"
 "http://www.w3.org/TR/2001/REC-SVG-20010904/DTD/svg10.dtd">
<svg version="1.0" xmlns="http://www.w3.org/2000/svg"
 width="512.000000pt" height="512.000000pt" viewBox="0 0 512.000000 512.000000"
 preserveAspectRatio="xMidYMid meet">
<metadata>
Created by potrace 1.14, written by Peter Selinger 2001-2017
</metadata>
<g transform="translate(0.000000,512.000000) scale(0.100000,-0.100000)"
fill="#000000" stroke="none">
<path d="M2365 4791 c-115 -15 -143 -47 -180 -207 -15 -63 -32 -117 -39 -119
-6 -2 -51 -14 -101 -27 l-89 -25 -80 84 c-44 46 -92 91 -107 99 -56 28 -110
18 -226 -41 -128 -66 -299 -180 -326 -216 -33 -45 -31 -94 6 -216 l34 -111
-74 -75 -75 -74 -111 34 c-161 50 -201 41 -275 -60 -105 -142 -212 -352 -212
-415 0 -61 17 -88 113 -178 l84 -80 -25 -89 c-13 -50 -25 -95 -27 -101 -2 -7
-56 -24 -120 -39 -131 -30 -174 -57 -197 -123 -18 -52 -18 -452 0 -504 23 -66
66 -93 197 -123 64 -15 118 -32 120 -39 2 -6 14 -51 27 -101 l25 -89 -84 -80
c-46 -44 -91 -92 -99 -107 -35 -68 -12 -142 103 -338 147 -251 176 -267 370
-208 l111 34 75 -74 74 -75 -34 -111 c-54 -177 -45 -203 110 -308 152 -102
308 -179 363 -179 63 0 89 16 180 112 l79 84 100 -26 100 -27 30 -121 c50
-199 64 -207 375 -207 311 0 325 8 375 207 l30 121 100 27 100 26 79 -84 c91
-96 117 -112 181 -112 36 0 69 12 161 60 116 60 247 143 293 184 29 26 51 76
50 113 0 15 -15 75 -33 133 l-33 105 74 76 75 76 111 -34 c161 -50 201 -41
275 60 105 142 212 352 212 415 0 60 -16 86 -112 178 l-84 80 27 100 26 99
121 30 c199 50 207 64 207 375 0 311 -8 325 -207 375 l-121 30 -26 99 -27 100
84 80 c46 44 90 93 98 108 35 67 12 142 -103 337 -148 251 -176 267 -370 208
l-111 -34 -75 76 -74 76 33 105 c18 58 33 118 33 133 1 37 -21 87 -50 113 -46
41 -177 124 -293 184 -92 48 -125 60 -161 60 -64 0 -90 -16 -181 -113 l-80
-84 -89 25 c-50 13 -95 25 -101 27 -7 2 -24 56 -39 119 -29 128 -53 168 -114
193 -41 17 -355 27 -456 14z m274 -348 c6 -21 17 -71 26 -111 18 -80 53 -131
102 -150 16 -6 66 -18 113 -27 47 -9 133 -32 191 -51 110 -35 165 -42 202 -23
12 6 59 48 105 93 l82 81 56 -30 c31 -17 58 -33 60 -37 3 -4 -9 -51 -26 -105
-50 -161 -41 -191 86 -301 44 -39 109 -103 144 -144 72 -85 121 -118 170 -118
20 0 80 14 133 30 54 17 101 29 105 26 4 -2 20 -29 37 -60 l30 -56 -81 -82
c-45 -46 -87 -93 -93 -105 -19 -37 -12 -92 23 -202 19 -58 42 -144 51 -191 9
-47 21 -97 27 -113 19 -49 70 -84 150 -102 40 -9 90 -20 111 -26 l37 -10 0
-69 0 -69 -37 -10 c-21 -6 -71 -17 -111 -26 -80 -18 -131 -53 -150 -102 -6
-16 -18 -66 -27 -113 -9 -47 -32 -133 -51 -191 -35 -110 -42 -165 -23 -202 6
-12 48 -59 93 -105 l81 -82 -30 -56 c-17 -31 -33 -58 -37 -60 -4 -3 -51 9
-105 26 -53 16 -113 30 -133 30 -49 0 -98 -33 -170 -118 -35 -41 -100 -105
-144 -144 -127 -110 -136 -140 -86 -301 17 -54 29 -101 26 -105 -2 -4 -29 -20
-60 -37 l-56 -30 -82 81 c-46 45 -93 87 -105 93 -37 19 -92 12 -202 -23 -58
-19 -144 -42 -191 -51 -47 -9 -97 -21 -113 -27 -49 -19 -84 -70 -102 -150 -9
-40 -20 -90 -26 -110 l-10 -38 -69 0 -69 0 -10 38 c-6 20 -17 70 -26 110 -18
80 -53 131 -102 150 -16 6 -66 18 -113 27 -47 9 -133 32 -191 51 -110 35 -165
42 -202 23 -12 -6 -59 -48 -105 -93 l-82 -81 -56 30 c-31 17 -58 33 -60 37 -3
4 9 51 26 105 50 162 42 190 -90 306 -47 40 -114 108 -149 149 -99 118 -135
127 -294 78 -54 -17 -101 -29 -105 -26 -4 2 -20 29 -37 60 l-30 56 81 82 c45
46 87 93 93 105 19 37 12 92 -23 202 -19 58 -42 142 -50 186 -24 118 -34 141
-71 174 -23 20 -55 34 -107 46 -40 9 -90 20 -110 26 l-38 10 0 69 0 69 38 10
c20 6 70 17 110 26 52 12 84 26 107 46 37 33 47 56 71 174 8 44 31 128 50 186
35 110 42 165 23 202 -6 12 -48 59 -93 105 l-81 82 30 56 c17 31 33 58 37 60
4 3 51 -9 105 -26 161 -50 191 -41 301 86 39 44 103 109 144 144 85 72 118
121 118 170 0 20 -14 80 -30 133 -17 54 -29 101 -26 105 2 4 29 20 60 37 l56
30 82 -81 c46 -45 93 -87 105 -93 37 -19 92 -12 202 23 58 19 142 42 186 50
118 24 141 34 174 71 20 23 34 55 46 107 9 40 20 90 26 111 l10 37 69 0 69 0
10 -37z"/>
<path d="M2420 3834 c-208 -27 -407 -101 -580 -217 -96 -64 -273 -241 -337
-337 -95 -142 -163 -302 -199 -470 -26 -119 -26 -381 0 -500 56 -259 167 -463
355 -651 188 -188 392 -299 651 -355 119 -26 381 -26 500 0 259 56 463 167
651 355 188 188 299 392 355 651 26 119 26 381 0 500 -56 262 -167 463 -360
656 -183 182 -374 288 -626 345 -83 19 -331 33 -410 23z m371 -343 c300 -78
547 -293 658 -572 53 -132 65 -199 65 -359 0 -160 -12 -227 -65 -359 -47 -117
-114 -217 -213 -317 -134 -133 -280 -215 -462 -261 -105 -26 -334 -24 -441 4
-352 93 -609 348 -705 702 -28 102 -31 342 -5 445 96 381 389 659 770 732 100
19 299 12 398 -15z"/>
</g>
</svg>
